<?xml version="1.0" standalone="no"?>
<!DOCTYPE svg PUBLIC "-//W3C//DTD SVG 20010904//EN"
 "http://www.w3.org/TR/2001/REC-SVG-20010904/DTD/svg10.dtd">
<svg version="1.0" xmlns="http://www.w3.org/2000/svg"
 width="2048.000000pt" height="2048.000000pt" viewBox="0 0 2048.000000 2048.000000"
 preserveAspectRatio="xMidYMid meet">

<g transform="translate(0.000000,2048.000000) scale(0.100000,-0.100000)"
fill="#000000" stroke="none">
<path d="M6903 14241 c-18 -5 -45 -16 -60 -26 -43 -28 -191 -149 -283 -231
-25 -22 -59 -51 -76 -65 -37 -28 -240 -198 -339 -284 -39 -33 -90 -76 -114
-95 -24 -19 -63 -51 -86 -70 -24 -19 -85 -69 -136 -110 -51 -41 -147 -120
-214 -175 -66 -55 -129 -107 -141 -115 -50 -35 -124 -103 -124 -114 0 -10 71
-73 180 -159 93 -74 193 -155 265 -212 48 -38 102 -81 120 -95 42 -32 150
-120 301 -245 140 -116 388 -319 515 -421 49 -40 104 -85 123 -100 39 -34 56
-47 116 -94 25 -19 47 -37 50 -40 3 -3 19 -16 37 -28 30 -22 38 -22 337 -22
168 0 306 -3 306 -7 0 -4 -55 -64 -122 -133 -68 -69 -204 -213 -303 -320 -99
-107 -308 -325 -465 -483 -157 -159 -286 -292 -288 -297 -2 -4 1 -11 6 -14 5
-3 270 -6 590 -7 506 -1 583 -3 594 -16 10 -13 1 -26 -58 -82 -87 -81 -298
-270 -444 -396 -19 -16 -62 -55 -95 -86 -33 -31 -73 -67 -90 -80 -16 -13 -52
-44 -80 -69 -27 -25 -88 -79 -135 -120 -47 -41 -87 -77 -90 -80 -3 -3 -39 -34
-80 -70 -41 -35 -77 -67 -80 -70 -5 -6 -244 -218 -354 -314 -39 -34 -95 -83
-126 -111 -31 -27 -132 -115 -225 -195 -92 -80 -227 -197 -300 -260 -120 -104
-278 -241 -436 -375 -32 -27 -149 -129 -261 -226 -217 -187 -525 -452 -592
-508 -60 -50 -126 -114 -126 -122 0 -3 561 -10 1248 -14 686 -4 1265 -9 1287
-10 22 0 462 -2 978 -3 626 -1 937 -5 937 -12 0 -6 -16 -18 -35 -27 -92 -44
-106 -43 1198 -41 1449 2 1810 10 2132 47 50 5 135 15 190 20 185 19 366 51
575 101 25 6 62 13 83 17 21 3 40 10 43 14 3 5 14 9 25 9 34 0 381 119 493
169 23 10 64 29 91 41 226 100 455 235 746 442 271 193 569 484 776 759 193
257 354 523 448 744 26 61 53 125 61 143 28 61 114 336 134 427 66 297 90 518
90 827 0 321 -23 634 -61 832 -5 28 -28 177 -50 331 -22 154 -53 363 -69 465
-49 302 -63 396 -90 600 -40 294 -52 375 -56 379 -12 13 -12 -15 1 -100 7 -52
17 -130 21 -173 l7 -79 -417 6 c-230 3 -419 7 -421 9 -1 1 -6 18 -10 37 -7 33
-7 34 21 27 25 -7 26 -6 13 10 -12 16 -12 17 4 11 11 -4 17 -2 17 8 0 8 -6 15
-12 15 -10 0 -10 2 0 9 11 7 11 11 -2 24 -9 8 -16 24 -17 34 0 10 -3 13 -6 5
-2 -6 -8 -10 -12 -8 -5 4 -6 -31 -2 -53 1 -2 8 2 16 9 13 10 12 6 -2 -18 l-18
-32 -7 43 c-4 23 -14 96 -23 162 -9 66 -19 131 -22 145 l-5 25 429 4 c235 1
430 4 432 6 2 2 1 10 -2 18 -4 11 -17 13 -59 6 -29 -4 -222 -5 -428 -1 l-375
7 -16 110 c-9 61 -20 136 -23 168 l-7 57 318 2 c375 1 366 6 -32 16 l-290 7
-18 149 c-15 123 -16 150 -5 157 9 6 4 9 -14 9 -27 0 -28 -2 -28 -55 0 -31 5
-99 11 -151 6 -53 8 -98 5 -101 -3 -3 -134 -6 -291 -7 l-285 -1 -5 30 c-4 25
-35 273 -35 282 0 2 -6 3 -14 3 -14 0 -13 -56 4 -220 4 -41 5 -78 3 -82 -2 -5
-154 -8 -336 -9 -183 -1 -357 -4 -387 -9 -32 -4 110 -8 336 -9 l391 -1 12 -87
c6 -49 14 -126 17 -173 l7 -85 -194 4 c-107 1 -282 -1 -389 -5 l-195 -9 180
-6 c99 -4 275 -7 392 -8 l212 -1 7 -57 c6 -54 5 -58 -22 -81 -16 -13 -69 -63
-119 -111 -49 -47 -116 -110 -147 -139 l-57 -52 -300 0 c-189 0 -302 -4 -306
-10 -4 -7 94 -10 285 -10 164 0 290 -4 288 -9 -9 -24 -369 -345 -558 -497 -13
-10 -44 -37 -69 -60 -25 -22 -73 -62 -106 -89 -33 -28 -105 -88 -160 -135
-156 -134 -425 -353 -477 -388 -46 -32 -81 -45 -44 -17 11 8 16 15 10 15 -5 0
-2 5 6 10 13 8 11 11 -7 16 -26 7 -28 14 -10 33 10 11 8 12 -12 6 -18 -5 -22
-4 -16 6 6 9 3 11 -8 6 -10 -3 -17 -3 -18 1 0 4 -2 15 -4 24 -2 11 2 15 11 11
29 -11 12 23 -19 38 -28 14 -32 21 -31 52 1 20 -2 35 -6 32 -4 -3 -11 3 -14
12 -5 13 -9 14 -15 5 -4 -7 -7 4 -8 24 -1 21 -9 45 -22 58 -12 12 -18 25 -15
29 3 3 3 11 -1 17 -5 8 -10 8 -20 0 -11 -9 -12 -3 -8 30 4 24 2 40 -5 40 -5 0
-9 14 -8 31 2 23 -3 33 -18 39 -12 5 -17 9 -12 9 4 1 1 12 -8 26 -9 14 -12 25
-6 25 6 0 1 18 -10 40 -11 21 -20 53 -20 70 0 16 -5 30 -11 30 -5 0 -7 4 -4
10 3 5 -3 17 -14 27 -20 17 -20 17 0 34 20 17 20 17 -10 35 -16 10 -28 21 -25
25 2 4 -4 5 -15 2 -10 -3 -22 1 -26 8 -5 8 -4 10 3 5 7 -4 12 -2 12 4 0 6 -7
13 -15 16 -10 4 -13 15 -10 36 5 24 3 29 -9 25 -9 -4 -18 5 -26 24 -7 16 -16
29 -21 29 -5 0 -9 7 -9 16 0 8 5 12 10 9 6 -3 10 1 10 10 0 11 -5 15 -15 11
-9 -3 -15 0 -15 9 0 25 -1 30 -12 42 -5 7 -7 17 -3 23 3 5 0 10 -8 10 -8 0
-17 7 -21 15 -4 10 1 15 14 15 26 0 26 30 0 37 -11 3 -20 10 -20 15 0 6 -7 8
-15 4 -13 -4 -13 -2 -5 14 12 22 13 43 2 36 -13 -8 -39 13 -26 22 12 8 13 40
1 59 -4 6 -1 13 7 16 9 4 12 14 9 26 -3 14 0 23 11 27 9 3 14 10 11 14 -6 9
26 70 56 108 10 13 16 29 13 37 -3 7 4 18 15 25 12 6 21 16 21 21 0 6 11 25
25 43 14 17 33 42 42 55 10 13 26 31 36 39 9 9 17 22 17 29 0 7 4 13 8 13 5 0
15 11 22 25 7 13 17 22 22 19 4 -3 8 1 8 8 0 7 27 40 59 73 l59 60 13 110 12
110 60 57 c32 31 56 62 52 68 -7 12 -67 -37 -286 -234 -79 -71 -195 -174 -258
-230 -63 -55 -160 -142 -215 -191 -56 -50 -135 -120 -176 -155 -41 -36 -136
-119 -211 -185 -131 -116 -326 -285 -478 -416 -41 -35 -103 -89 -137 -119
-264 -231 -564 -490 -569 -490 -4 0 20 24 52 53 32 28 95 88 141 132 46 44 89
82 95 84 7 2 21 13 33 25 11 12 44 42 73 68 43 39 53 52 49 73 -3 13 -1 22 3
19 5 -3 9 0 9 5 0 6 6 11 14 11 8 0 16 7 20 15 3 8 12 15 20 15 15 0 30 41 18
50 -4 3 -7 20 -8 38 -1 28 2 32 24 32 19 0 23 3 15 11 -6 6 -9 18 -6 27 5 11
2 13 -8 8 -8 -4 -4 1 8 12 24 21 19 40 -5 19 -13 -10 -14 -9 -4 10 14 26 15
36 3 29 -12 -8 -41 4 -41 16 0 5 4 7 9 4 13 -8 24 25 12 37 -7 7 -7 17 0 29 6
11 8 24 6 31 -2 7 5 22 16 35 24 26 12 29 -21 6 -13 -9 -26 -13 -29 -10 -4 3
-1 6 5 6 7 0 9 7 5 17 -5 13 -2 15 12 10 16 -7 16 -6 3 15 -9 14 -12 31 -8 43
4 11 5 26 2 34 -3 9 -1 12 6 7 7 -4 12 -2 12 4 0 6 4 9 9 6 5 -4 7 3 4 14 -3
11 -14 20 -25 20 -10 0 -17 -4 -13 -9 3 -5 1 -12 -4 -15 -10 -6 -22 29 -13 38
3 3 14 6 25 6 16 0 17 3 8 14 -8 10 -9 16 -1 21 5 3 10 1 10 -6 0 -7 3 -9 7
-6 3 4 -4 17 -16 28 -13 12 -19 24 -14 28 17 11 23 42 13 61 -8 15 -6 21 7 29
10 6 14 11 9 11 -4 0 2 9 15 20 18 14 20 19 8 20 -8 0 -20 -5 -27 -12 -6 -6
-15 -8 -19 -4 -4 4 0 12 10 17 9 6 17 17 17 25 0 9 5 13 13 9 6 -4 1 3 -13 15
-17 15 -19 20 -7 16 9 -3 17 -1 17 3 0 5 -5 11 -11 13 -9 3 -9 9 0 25 14 27
14 46 1 38 -5 -3 -10 -1 -10 5 0 6 -4 8 -10 5 -5 -3 -10 -1 -10 5 0 6 10 8 25
4 25 -6 25 -6 10 22 -8 16 -15 36 -14 44 0 10 3 8 9 -5 7 -17 9 -15 9 13 1 24
5 32 20 32 15 0 18 7 17 38 0 20 -5 40 -11 44 -6 5 -5 8 2 8 8 0 11 11 9 30
-2 17 1 28 8 27 6 -1 9 9 8 26 -3 20 1 27 14 27 10 0 14 3 11 6 -9 9 12 46 22
39 11 -6 22 21 15 38 -2 7 4 22 14 33 10 10 17 25 14 32 -2 7 -1 20 2 28 5 13
9 14 20 5 11 -9 15 -8 20 5 4 10 1 21 -6 26 -9 6 -5 8 12 6 19 -2 25 2 25 17
0 18 11 21 105 32 58 7 204 16 325 21 195 7 143 8 -445 15 -1081 11 -3442 17
-3477 8z m3392 -199 c-3 -3 -11 0 -18 7 -9 10 -8 11 6 5 10 -3 15 -9 12 -12z
m-8 -39 c2 -6 -3 -13 -12 -16 -10 -5 -15 0 -15 14 0 21 21 22 27 2z m3938
-162 c0 -5 -40 -44 -90 -87 -49 -43 -128 -115 -175 -160 -47 -45 -94 -83 -105
-86 -11 -2 -20 -10 -20 -19 0 -8 -10 -28 -23 -43 -12 -16 -22 -22 -22 -15 0 8
-5 52 -10 99 -6 47 -15 128 -20 180 -6 52 -12 108 -15 124 l-5 28 243 -6 c133
-3 242 -10 242 -15z m95 -3 c0 -7 7 -74 15 -148 20 -183 22 -170 -22 -170 -32
1 -35 3 -22 13 9 7 15 19 13 27 -2 8 -5 22 -6 30 -2 8 -7 21 -12 28 -4 7 -6
16 -3 18 3 3 -1 21 -9 40 -8 19 -11 34 -8 34 4 0 1 7 -6 15 -7 8 -16 12 -21
10 -9 -6 -4 28 6 45 3 6 2 10 -4 10 -18 0 0 30 28 45 33 18 51 19 51 3z
m-4184 -335 c-10 -10 -19 5 -10 18 6 11 8 11 12 0 2 -7 1 -15 -2 -18z m4247
-253 c4 -51 3 -62 -2 -35 -14 69 -20 128 -11 119 4 -5 10 -43 13 -84z m20
-145 c4 -32 3 -43 -3 -30 -8 19 -14 93 -6 84 2 -2 6 -26 9 -54z m895 -131 c37
-7 38 -12 51 -124 6 -47 13 -111 17 -143 l7 -58 -351 5 c-193 3 -362 8 -376
12 -13 3 -28 13 -32 22 -11 24 -13 52 -4 47 4 -3 10 2 14 10 3 8 2 15 -3 15
-4 0 -8 14 -8 30 0 17 5 30 11 30 7 0 6 3 -1 8 -7 4 -12 19 -11 32 1 32 -12
70 -24 70 -5 0 -6 5 -3 10 4 6 10 8 15 5 4 -3 10 1 12 7 3 9 36 15 99 19 135
8 551 10 587 3z m-3838 -64 c0 -5 -4 -10 -10 -10 -5 0 -10 5 -10 10 0 6 5 10
10 10 6 0 10 -4 10 -10z m3145 -28 c-3 -3 -11 0 -18 7 -9 10 -8 11 6 5 10 -3
15 -9 12 -12z m784 -324 c8 -51 66 -449 85 -585 l5 -33 -222 1 c-179 0 -385
10 -464 21 -14 2 -18 18 -5 18 9 0 11 9 15 55 1 14 6 25 11 25 5 0 1 10 -10
22 -15 19 -16 20 -1 9 10 -8 17 -9 17 -3 0 6 -5 14 -10 17 -6 4 -8 10 -5 15 2
4 -5 20 -16 35 -15 18 -18 30 -11 37 6 6 7 17 2 27 -13 24 -23 54 -24 71 -1 8
-5 22 -11 30 -5 8 -9 27 -10 43 -1 16 -6 32 -11 35 -6 4 -14 16 -17 27 -7 19
-6 19 7 2 13 -17 14 -16 12 8 0 16 -6 23 -13 20 -7 -2 -13 0 -13 5 0 6 6 10
13 10 8 0 8 3 -2 9 -12 8 -13 14 -3 35 10 22 9 26 -4 26 -9 0 -12 5 -8 11 3 6
0 15 -7 20 -11 7 -11 9 2 9 9 0 19 6 22 14 8 21 37 23 368 24 l297 2 11 -62z
m-2313 -140 c241 -245 403 -439 553 -662 84 -124 231 -392 231 -420 0 -3 8
-25 19 -49 72 -163 141 -503 141 -698 0 -166 -68 -484 -137 -639 -99 -225
-194 -363 -368 -535 -102 -102 -273 -235 -377 -294 -85 -47 -224 -117 -268
-135 -25 -10 -58 -24 -75 -31 -192 -84 -442 -146 -715 -177 -47 -5 -505 -12
-1019 -14 -755 -4 -937 -7 -952 -18 -11 -7 -36 -28 -57 -47 -20 -19 -58 -51
-84 -72 -26 -21 -53 -43 -60 -50 -8 -7 -47 -41 -88 -77 -41 -35 -77 -67 -80
-70 -3 -3 -27 -23 -54 -44 -26 -22 -59 -50 -72 -63 -13 -12 -40 -34 -60 -48
l-37 -25 -751 0 -751 0 100 97 c248 239 418 406 981 963 331 327 674 667 763
754 90 87 170 170 178 183 15 23 14 25 -38 72 -78 70 -367 328 -414 369 -22
20 -65 58 -95 86 -31 28 -76 69 -100 90 -25 22 -70 62 -100 90 -108 99 -246
223 -285 257 -83 70 -146 133 -143 144 2 5 36 41 76 79 l73 70 67 -65 c37 -36
114 -107 172 -159 58 -51 139 -123 180 -160 41 -37 91 -80 110 -96 19 -16 37
-31 40 -34 3 -4 37 -33 75 -65 104 -87 194 -165 245 -211 25 -23 61 -55 80
-70 41 -33 178 -154 229 -202 71 -67 80 -65 201 36 36 30 87 73 115 96 27 23
65 55 85 72 19 16 49 41 66 55 17 13 71 58 120 99 48 41 102 86 120 100 27 21
74 61 239 202 11 9 54 45 96 80 135 111 437 366 679 573 289 247 399 340 453
383 23 18 67 55 97 81 30 27 109 95 175 152 66 58 147 128 180 157 33 28 65
52 70 52 6 0 82 -73 171 -162z m-3526 -322 c0 -2 -8 -10 -17 -17 -16 -13 -17
-12 -4 4 13 16 21 21 21 13z m5934 -204 c8 -23 46 -318 46 -352 l0 -25 -222 3
c-229 2 -354 9 -344 19 3 4 1 12 -5 19 -7 9 -7 19 0 33 14 26 14 29 -5 27 -19
-1 -28 33 -13 51 8 8 5 17 -9 29 -16 13 -18 21 -10 34 15 23 3 51 -17 44 -17
-7 -21 11 -5 21 6 4 7 11 4 17 -4 6 0 14 7 19 11 7 9 10 -8 15 -13 4 -21 10
-18 14 3 5 1 11 -5 15 -17 10 -11 23 13 28 12 2 149 5 304 6 265 1 282 0 287
-17z m-5784 -1630 c0 -19 -1344 -1364 -1910 -1912 -173 -168 -315 -309 -315
-315 0 -5 59 -10 150 -10 83 0 480 -1 883 -3 695 -2 732 -3 721 -19 -6 -10
-26 -29 -43 -43 -18 -14 -61 -51 -97 -82 -35 -31 -90 -79 -122 -107 l-59 -50
-1081 -3 c-595 -2 -1084 -1 -1087 1 -3 2 39 44 92 95 147 139 593 571 879 850
140 138 307 300 370 361 62 60 360 354 660 652 301 298 566 555 589 572 l43
31 164 0 c150 0 163 -1 163 -18z m-5476 -3127 c4 -10 -1 -15 -16 -15 -17 0
-18 2 -8 15 7 8 14 15 15 15 2 0 5 -7 9 -15z"/>
<path d="M14378 14183 c7 -3 16 -2 19 1 4 3 -2 6 -13 5 -11 0 -14 -3 -6 -6z"/>
<path d="M15185 14100 c7 -73 23 -141 24 -107 1 16 20 17 245 17 135 0 247 3
249 8 3 4 -101 6 -230 4 -167 -2 -238 0 -248 8 -8 7 -17 38 -21 71 -4 33 -11
62 -16 66 -7 3 -8 -20 -3 -67z"/>
<path d="M15743 14023 c9 -2 25 -2 35 0 9 3 1 5 -18 5 -19 0 -27 -2 -17 -5z"/>
<path d="M15221 13854 c0 -11 3 -14 6 -6 3 7 2 16 -1 19 -3 4 -6 -2 -5 -13z"/>
<path d="M15168 13853 c7 -3 16 -2 19 1 4 3 -2 6 -13 5 -11 0 -14 -3 -6 -6z"/>
<path d="M10190 13711 c0 -6 4 -12 8 -15 5 -3 9 1 9 9 0 8 -4 15 -9 15 -4 0
-8 -4 -8 -9z"/>
<path d="M15241 13704 c0 -11 3 -14 6 -6 3 7 2 16 -1 19 -3 4 -6 -2 -5 -13z"/>
<path d="M15261 13564 c0 -11 3 -14 6 -6 3 7 2 16 -1 19 -3 4 -6 -2 -5 -13z"/>
<path d="M15919 13396 c-3 -22 -11 -32 -30 -37 -15 -4 -142 -8 -282 -10 -140
-2 -253 -8 -250 -12 3 -5 126 -7 274 -5 296 4 304 6 297 64 l-4 29 -5 -29z"/>
<path d="M10180 12930 c8 -5 20 -10 25 -10 6 0 3 5 -5 10 -8 5 -19 10 -25 10
-5 0 -3 -5 5 -10z"/>
<path d="M10159 12721 c8 -5 12 -18 9 -29 -4 -14 -2 -19 7 -16 7 3 12 16 11
30 -1 17 -7 24 -21 24 -15 0 -17 -2 -6 -9z"/>
<path d="M10125 12640 c-3 -5 -1 -10 4 -10 6 0 11 5 11 10 0 6 -2 10 -4 10 -3
0 -8 -4 -11 -10z"/>
<path d="M10080 12600 c0 -5 5 -10 10 -10 6 0 10 5 10 10 0 6 -4 10 -10 10 -5
0 -10 -4 -10 -10z"/>
<path d="M11880 12020 c0 -5 5 -10 10 -10 6 0 10 5 10 10 0 6 -4 10 -10 10 -5
0 -10 -4 -10 -10z"/>
</g>
</svg>
